<?xml version="1.0" encoding="UTF-8"?><svg xmlns="http://www.w3.org/2000/svg" xmlns:xlink="http://www.w3.org/1999/xlink" width="196.5" zoomAndPan="magnify" viewBox="0 0 196.5 197.999996" height="197.999996" preserveAspectRatio="xMidYMid meet" version="1.0"><defs><clipPath id="clip-0"><path d="M 0 1 L 196 1 L 196 197.746094 L 0 197.746094 Z M 0 1 " clip-rule="nonzero"/></clipPath><clipPath id="clip-1"><path d="M 62 19.902344 L 135 19.902344 L 135 93 L 62 93 Z M 62 19.902344 " clip-rule="nonzero"/></clipPath><clipPath id="clip-2"><path d="M 28.558594 96 L 168.058594 96 L 168.058594 159.402344 L 28.558594 159.402344 Z M 28.558594 96 " clip-rule="nonzero"/></clipPath></defs><g clip-path="url(#clip-0)"><path fill="rgb(63.919067%, 78.039551%, 81.568909%)" d="M 98.25 1 C 43.988281 1 0 44.988281 0 99.25 C 0 153.511719 43.988281 197.5 98.25 197.5 C 152.511719 197.5 196.5 153.511719 196.5 99.25 C 196.5 44.988281 152.511719 1 98.25 1 Z M 98.25 1 " fill-opacity="1" fill-rule="nonzero"/></g><g clip-path="url(#clip-1)"><path fill="rgb(100%, 100%, 99.609375%)" d="M 98.308594 92.441406 C 118.308594 92.441406 134.578125 76.171875 134.578125 56.171875 C 134.578125 36.171875 118.308594 19.902344 98.308594 19.902344 C 78.308594 19.902344 62.039062 36.171875 62.039062 56.171875 C 62.039062 76.171875 78.308594 92.441406 98.308594 92.441406 Z M 98.308594 92.441406 " fill-opacity="1" fill-rule="nonzero"/></g><g clip-path="url(#clip-2)"><path fill="rgb(100%, 100%, 99.609375%)" d="M 134.828125 97.179688 C 133.820312 96.5625 132.535156 96.644531 131.609375 97.386719 C 122.074219 105.101562 110.554688 109.179688 98.308594 109.179688 C 86.058594 109.179688 74.546875 105.101562 65.007812 97.386719 C 64.089844 96.644531 62.800781 96.558594 61.792969 97.179688 C 40.980469 109.996094 28.558594 132.210938 28.558594 156.609375 C 28.558594 158.152344 29.808594 159.402344 31.347656 159.402344 L 165.269531 159.402344 C 166.8125 159.402344 168.058594 158.152344 168.058594 156.609375 C 168.058594 132.210938 155.632812 109.996094 134.828125 97.179688 Z M 134.828125 97.179688 " fill-opacity="1" fill-rule="nonzero"/></g></svg>